#!OML:ASF X:\für Bonn\!DataBase\2005_08_11_Bastian_Final\c3d\Bastian.ASF
:FULLY-SPECIFIED
:DEGREES
201
root 11.8666 16.7933 -5.51188 71.8018 102.255 -640.176
lowerback 12.3619 1.31268 7.54507
upperback 6.60399 2.92798 1.84731
thorax 0.298479 1.78576 -2.64473
lowerneck -11.303 2.40189 -4.88013
upperneck 0.0436043 3.88974 0.903545
head 1.84052 1.98884 1.32428
rclavicle -1.49089e-014 6.36111e-015
rhumerus -43.3598 18.1436 -95.3193
rradius 81.3556
rwrist 13.6852
rhand -24.2937 20.2839
rfingers 7.12502
rthumb 2.19373 -9.68453
lclavicle -1.49089e-014 6.36111e-015
lhumerus -52.3657 -18.1913 95.1672
lradius 62.4417
lwrist 15.471
lhand -13.6347 -8.90024
lfingers 7.12502
lthumb 12.4813 20.707
rfemur 4.7353 -6.87403 23.8928
rtibia 38.8603
rfoot -22.3538 -1.25012
rtoes -29.9408
lfemur -36.629 9.34384 -15.6584
ltibia 82.2705
lfoot -16.098 -2.7996
ltoes -14.9294
202
root 12.1538 16.8957 -5.54161 68.0919 102.292 -643.856
lowerback 12.054 1.42738 7.38947
upperback 6.54395 3.02991 1.77503
thorax 0.40592 1.83323 -2.63254
lowerneck -11.2296 2.27038 -4.80627
upperneck 0.292088 3.69673 0.925754
head 1.91688 1.88675 1.31271
rclavicle 7.95139e-015 7.95139e-015
rhumerus -43.0904 18.6628 -95.5545
rradius 83.1716
rwrist 13.5131
rhand -23.73 20.4786
rfingers 7.12502
rthumb 2.73808 -9.48361
lclavicle 7.95139e-015 7.95139e-015
lhumerus -53.3342 -18.4881 94.9305
lradius 62.9934
lwrist 16.5613
lhand -13.4129 -8.89248
lfingers 7.12502
lthumb 12.6951 20.7016
rfemur 6.80449 -5.74933 24.2597
rtibia 36.9416
rfoot -20.6513 -2.79212
rtoes -31.5891
lfemur -36.4009 9.43917 -16.0936
ltibia 78.783
lfoot -16.1242 -3.44913
ltoes -16.2811
203
root 12.4462 16.9962 -5.57542 64.4581 102.407 -647.51
lowerback 11.6501 1.53792 7.24809
upperback 6.46392 3.11883 1.70621
thorax 0.54383 1.87383 -2.61859
lowerneck -11.1579 2.14366 -4.73059
upperneck 0.578728 3.50894 0.958845
head 2.00597 1.78686 1.30508
rclavicle 6.16232e-015 1.11319e-014
rhumerus -42.7807 19.0825 -95.7555
rradius 85.036
rwrist 13.3334
rhand -22.9725 20.5704
rfingers 7.12502
rthumb 3.46966 -9.38112
lclavicle 6.16232e-015 1.11319e-014
lhumerus -54.3087 -18.7711 94.7001
lradius 63.572
lwrist 17.8847
lhand -13.2427 -8.91846
lfingers 7.12502
lthumb 12.8592 20.6654
rfemur 8.69287 -4.69885 24.6729
rtibia 35.2159
rfoot -18.8338 -4.17529
rtoes -33.0964
lfemur -36.0242 9.34632 -16.4989
ltibia 75.1423
lfoot -16.1196 -4.18682
ltoes -16.6424
204
root 12.7418 17.0986 -5.61487 60.7935 102.609 -651.217
lowerback 11.2131 1.63216 7.1572
upperback 6.38455 3.18925 1.62966
thorax 0.702821 1.90718 -2.63627
lowerneck -11.0795 1.99936 -4.69976
upperneck 0.813478 3.30096 1.06243
head 2.07592 1.68042 1.32593
rclavicle 6.38099e-014 2.22639e-014
rhumerus -42.4728 19.3695 -95.8916
rradius 86.9463
rwrist 13.2652
rhand -22.2313 20.4609
rfingers 7.12502
rthumb 4.18539 -9.47771
lclavicle 6.38099e-014 2.22639e-014
lhumerus -55.197 -19.1657 94.4929
lradius 64.1008
lwrist 19.4404
lhand -13.1072 -8.93163
lfingers 7.12502
lthumb 12.9898 20.644
rfemur 10.4172 -3.87416 25.0417
rtibia 33.6858
rfoot -16.9387 -5.25119
rtoes -34.3303
lfemur -35.5072 9.04366 -16.8661
ltibia 71.339
lfoot -16.0402 -4.95057
ltoes -16.402
205
root 13.0416 17.2012 -5.65857 57.2435 102.891 -654.831
lowerback 10.7182 1.7139 7.07127
upperback 6.30658 3.23928 1.56525
thorax 0.893002 1.93099 -2.6385
lowerneck -11.0511 1.85856 -4.62038
upperneck 1.08856 3.09613 1.10795
head 2.16982 1.57364 1.32116
rclavicle 3.12092e-014 3.73715e-014
rhumerus -42.2673 19.6435 -95.9517
rradius 88.8585
rwrist 13.1787
rhand -21.6358 20.2493
rfingers 7.12502
rthumb 4.76047 -9.67722
lclavicle 3.12092e-014 3.73715e-014
lhumerus -56.0897 -19.5328 94.3129
lradius 64.6397
lwrist 21.056
lhand -13.0477 -8.95568
lfingers 7.12502
lthumb 13.0472 20.6163
rfemur 11.9781 -3.34691 25.3126
rtibia 32.3356
rfoot -14.8824 -5.91529
rtoes -35.4873
lfemur -34.8655 8.67087 -17.1997
ltibia 67.4123
lfoot -15.9042 -5.72411
ltoes -15.9911
206
root 13.342 17.3023 -5.70562 53.7562 103.221 -658.491
lowerback 10.1051 1.78977 6.92755
upperback 6.21783 3.26584 1.50696
thorax 1.13062 1.9413 -2.59429
lowerneck -11.0318 1.72916 -4.55537
upperneck 1.3305 2.90928 1.15282
head 2.25373 1.47688 1.31889
rclavicle -1.88845e-014 -3.97569e-014
rhumerus -42.1007 19.8709 -95.9417
rradius 90.4994
rwrist 13.2296
rhand -21.4056 20.1033
rfingers 7.12502
rthumb 4.98271 -9.81813
lclavicle -1.88845e-014 -3.97569e-014
lhumerus -56.8843 -19.8477 94.1531
lradius 65.0993
lwrist 22.6381
lhand -13.0426 -9.03872
lfingers 7.12502
lthumb 13.0521 20.5329
rfemur 13.2523 -3.09602 25.4113
rtibia 31.2381
rfoot -12.6778 -6.12943
rtoes -36.4855
lfemur -34.2451 8.27023 -17.5888
ltibia 63.4452
lfoot -15.7146 -6.35672
ltoes -15.7509
207
root 13.6449 17.3974 -5.75417 50.7023 103.668 -661.83
lowerback 9.35647 1.86393 6.83957
upperback 6.08 3.28296 1.45734
thorax 1.3944 1.94571 -2.56579
lowerneck -10.9919 1.59968 -4.48636
upperneck 1.59452 2.71925 1.21332
head 2.34145 1.37873 1.32052
rclavicle -5.88403e-014 -2.14687e-014
rhumerus -42.0792 20.0765 -95.9615
rradius 91.9469
rwrist 13.2724
rhand -21.5208 20.0015
rfingers 7.12502
rthumb 4.87152 -9.92252
lclavicle -5.88403e-014 -2.14687e-014
lhumerus -57.6436 -20.1752 94.029
lradius 65.553
lwrist 24.0638
lhand -13.0538 -9.05171
lfingers 7.12502
lthumb 13.0414 20.5206
rfemur 14.2551 -3.00862 25.5024
rtibia 30.3388
rfoot -10.4648 -6.06706
rtoes -37.3725
lfemur -33.6924 7.87724 -17.9292
ltibia 59.4902
lfoot -15.5177 -6.72143
ltoes -16.2559
208
root 13.9488 17.4709 -5.80176 47.8132 104.238 -665.094
lowerback 8.48281 1.91257 6.76488
upperback 5.93353 3.25718 1.41941
thorax 1.71573 1.92942 -2.52371
lowerneck -11.007 1.45465 -4.45117
upperneck 1.89403 2.51463 1.29335
head 2.45165 1.27358 1.33515
rclavicle -1.39149e-015 -4.13472e-014
rhumerus -42.0954 20.2907 -95.9687
rradius 93.1278
rwrist 13.345
rhand -21.974 19.9656
rfingers 7.12502
rthumb 4.43391 -9.96798
lclavicle -1.39149e-015 -4.13472e-014
lhumerus -58.2235 -20.4529 93.918
lradius 65.9511
lwrist 25.2931
lhand -13.0606 -8.92711
lfingers 7.12502
lthumb 13.0348 20.6456
rfemur 15.0207 -3.14678 25.5569
rtibia 29.6887
rfoot -8.31475 -5.80694
rtoes -38.1297
lfemur -33.2725 7.46169 -18.2428
ltibia 55.6665
lfoot -15.2813 -6.93044
ltoes -16.7474
209
root 14.2571 17.5547 -5.85408 45.0235 104.862 -668.31
lowerback 7.5078 1.93958 6.63428
upperback 5.79053 3.19174 1.38305
thorax 2.09152 1.89243 -2.4427
lowerneck -10.9988 1.32404 -4.4309
upperneck 2.13235 2.32945 1.39022
head 2.53643 1.18007 1.35725
rclavicle 3.51849e-014 -3.97569e-015
rhumerus -42.1842 20.5371 -95.9981
rradius 94.1427
rwrist 13.2607
rhand -22.6102 20.0384
rfingers 7.12502
rthumb 3.81948 -9.90716
lclavicle 3.51849e-014 -3.97569e-015
lhumerus -58.6862 -20.6207 93.7948
lradius 66.331
lwrist 26.206
lhand -13.0452 -8.71289
lfingers 7.12502
lthumb 13.0497 20.8589
rfemur 15.5888 -3.46433 25.508
rtibia 29.2738
rfoot -6.12487 -5.37409
rtoes -38.5115
lfemur -32.7911 7.03027 -18.5811
ltibia 51.9061
lfoot -15.0707 -7.00753
ltoes -16.9344
210
root 14.5661 17.6266 -5.90682 42.5077 105.559 -671.258
lowerback 6.52901 1.95807 6.52172
upperback 5.63407 3.11868 1.33777
thorax 2.45915 1.85117 -2.38251
lowerneck -10.9493 1.18205 -4.43482
upperneck 2.36835 2.1289 1.50282
head 2.61338 1.07931 1.38707
rclavicle 5.04913e-014 3.18055e-015
rhumerus -42.3963 20.7981 -96.0854
rradius 95.023
rwrist 12.9742
rhand -23.3603 20.1638
rfingers 7.12502
rthumb 3.09511 -9.79343
lclavicle 5.04913e-014 3.18055e-015
lhumerus -59.1557 -20.8344 93.6731
lradius 66.6936
lwrist 26.9297
lhand -12.9526 -8.57444
lfingers 7.12502
lthumb 13.1389 20.9916
rfemur 15.9647 -3.93911 25.4128
rtibia 29.1885
rfoot -3.92782 -4.79942
rtoes -38.4612
lfemur -32.3065 6.59767 -18.8834
ltibia 48.3112
lfoot -14.8611 -6.94086
ltoes -16.0644
211
root 14.8739 17.6835 -5.96182 40.2426 106.29 -673.9
lowerback 5.60695 1.94709 6.38235
upperback 5.50414 3.01396 1.32478
thorax 2.81918 1.79382 -2.27705
lowerneck -10.9569 1.06039 -4.51218
upperneck 2.62412 1.9657 1.65576
head 2.70649 0.997937 1.44653
rclavicle -1.19271e-015 -1.35174e-014
rhumerus -42.6316 21.0704 -96.1764
rradius 95.807
rwrist 12.5069
rhand -23.9032 20.3001
rfingers 7.12502
rthumb 2.57087 -9.66414
lclavicle -1.19271e-015 -1.35174e-014
lhumerus -59.7317 -20.9124 93.5451
lradius 67.1904
lwrist 27.3545
lhand -12.8008 -8.51529
lfingers 7.12502
lthumb 13.2852 21.0413
rfemur 16.2355 -4.47632 25.279
rtibia 29.3867
rfoot -1.73798 -4.21579
rtoes -38.0464
lfemur -31.7482 6.31376 -19.2046
ltibia 44.8454
lfoot -14.7679 -6.91485
ltoes -14.2142
212
root 15.1806 17.7245 -6.01768 38.3642 107.068 -676.109
lowerback 4.74306 1.93862 6.30705
upperback 5.37801 2.92283 1.3068
thorax 3.15857 1.74533 -2.21725
lowerneck -10.9261 0.937191 -4.48253
upperneck 2.83527 1.78689 1.75776
head 2.77891 0.909113 1.46782
rclavicle -1.15295e-014 3.18055e-015
rhumerus -42.8719 21.2112 -96.3002
rradius 96.4597
rwrist 11.9059
rhand -24.2901 20.4725
rfingers 7.12502
rthumb 2.19723 -9.49592
lclavicle -1.15295e-014 3.18055e-015
lhumerus -60.4185 -20.9998 93.3722
lradius 67.8286
lwrist 27.5523
lhand -12.5693 -8.49588
lfingers 7.12502
lthumb 13.5083 21.046
rfemur 16.361 -5.05286 25.168
rtibia 29.933
rfoot 0.549934 -3.53607
rtoes -37.6819
lfemur -31.1869 6.28176 -19.5273
ltibia 41.6057
lfoot -14.8618 -7.01473
ltoes -12.4403
